<svg xmlns="http://www.w3.org/2000/svg" xmlns:xlink="http://www.w3.org/1999/xlink" width="640" height="640"><defs><path d="M481.67 472.62c.01 39.18 31.92 70.5 72.02 70.66 44.79.19 83.32-36.41 83.25-79.09-.06-37.53-35.21-71.42-73.97-71.3-43.92.17-81.32 36.82-81.3 79.73zm-192.5 10.81c-.47 34.65 25.88 61.87 59.19 61.21 46.92-.95 85.05-50.45 73.98-96.04-6.33-26.1-29.41-44.21-56.28-44.21-40.55 0-76.31 36.78-76.89 79.04zm283.79-131.32c.01-.02.02-.02.04-.02 27.65-6.05 47.13-22.07 56.6-48.7 9.16-25.79.18-50.23-22.63-65.51-28.71-19.23-73.88-11.03-97.73 17.76-11.19 13.51-18.33 28.72-16.48 46.57 3.49 33.56 30.45 54.3 66.53 51.87 4.78.93 9.34.21 13.67-1.97zm-256.31-47.36c-7.5 34.48 14.87 62.5 49.91 62.5 33.94 0 66.39-26.07 73.63-59.16 7.53-34.42-15.93-63.22-51.17-62.83-33.15.37-65.26 26.75-72.37 59.49zM139.89 486.86c-.75 46.89 35.62 70.39 72.72 51.86 27.63-13.8 43.2-36.84 45.77-67.73 3.38-40.2-32.32-66.5-69.24-50.46-31.03 13.49-46.39 38.7-49.25 66.33zm487.72-338.78c12-23.94 5.57-48.08-16.41-61.72-9.64-5.97-20.06-8.64-26.79-7.96-33.32.18-56.05 12.03-71.77 35.74-19.98 30.15-5.7 64.71 29.56 73.29 31.77 7.73 70.82-10.26 85.41-39.35zM3.06 488.3c-.01 48.44 29.92 66.76 62.28 49.35 26.91-14.46 41.56-37.98 43.4-68.17 2.14-35.11-30.73-55.77-62.21-39.05C18.99 445.06 4.07 468.6 3.06 488.3zm337.76-332.43c-8.72 30.01 10.81 55.77 42.34 55.85 30.74.06 62.28-23.01 70.58-51.64 7.45-25.6-5.61-48.01-31.46-54.04-31.5-7.35-72.05 17.46-81.46 49.83zm-165.53 179.6c.28 26.44 21.73 44.55 48.04 40.59 28.94-4.35 54.78-29.65 59.69-58.45 4.7-27.51-13.42-50.39-39.98-50.47-34.34-.11-68.13 33.98-67.75 68.33zm135.76-170.84c-1.49-16.48-13.04-29.54-29.43-33.27-34.8-7.9-78.7 27.42-79.84 64.26-.6 19.03 11.07 33.94 29.86 38.13 36.36 8.09 82.72-32.25 79.41-69.12zM105.71 281.19c-31.53 5.03-59.26 37.11-59.61 69.02-.25 22.04 14.38 37.75 35.27 37.83 34.81.13 70.46-39.01 67.06-73.64-2.25-22.77-20.26-36.77-42.72-33.21zm71.24-87.28c3.32-22.58-11.52-39.12-33.94-37.81-29.04 1.69-58.86 32.37-59.28 60.98-.29 20.68 14.72 34.06 35.76 31.88 26.21-2.72 53.63-28.98 57.46-55.05z" id="a"/></defs><use xlink:href="#a" fill="#38c3db"/><use xlink:href="#a" fill-opacity="0" stroke="#000" stroke-opacity="0"/></svg>